<svg width="24" height="18" viewBox="0 0 24 18" fill="none" xmlns="http://www.w3.org/2000/svg">
    <path d="M16.2667 8.99883C16.2667 10.0597 15.8453 11.0771 15.0951 11.8273C14.345 12.5774 13.3276 12.9988 12.2667 12.9988M8.2667 8.99883C8.2667 7.93796 8.68813 6.92055 9.43827 6.1704C10.1884 5.42026 11.2058 4.99883 12.2667 4.99883M9.8667 15.922C10.6537 16.1046 11.4588 16.1974 12.2667 16.1988C18.0107 16.1988 22.6667 11.3988 22.6667 8.99883C22.6667 7.93003 21.7427 6.38443 20.2099 4.99883M15.0667 2.17483C14.1539 1.92734 13.2125 1.80093 12.2667 1.79883C6.5227 1.79883 1.8667 6.59883 1.8667 8.99883C1.8667 10.0548 2.7683 11.5748 4.2667 12.9468M5.0667 16.1988L19.4667 1.79883" stroke="#8E90A6" stroke-width="2" stroke-linecap="round" stroke-linejoin="round"/>
</svg>
