<svg width="22" height="22" viewBox="0 0 22 22" fill="none" xmlns="http://www.w3.org/2000/svg">
    <path d="M11 17.8438L5.81253 20.9688C5.58336 21.1146 5.34378 21.1771 5.09378 21.1562C4.84378 21.1354 4.62503 21.0521 4.43753 20.9063C4.25003 20.7604 4.10419 20.5783 4.00003 20.36C3.89586 20.1408 3.87503 19.8958 3.93753 19.625L5.31253 13.7188L0.718777 9.75C0.510444 9.5625 0.380444 9.34875 0.328777 9.10875C0.276277 8.86958 0.291694 8.63542 0.375027 8.40625C0.45836 8.17708 0.58336 7.98958 0.750027 7.84375C0.916694 7.69792 1.14586 7.60417 1.43753 7.5625L7.50003 7.03125L9.84378 1.46875C9.94794 1.21875 10.1096 1.03125 10.3288 0.90625C10.5471 0.78125 10.7709 0.71875 11 0.71875C11.2292 0.71875 11.4534 0.78125 11.6725 0.90625C11.8909 1.03125 12.0521 1.21875 12.1563 1.46875L14.5 7.03125L20.5625 7.5625C20.8542 7.60417 21.0834 7.69792 21.25 7.84375C21.4167 7.98958 21.5417 8.17708 21.625 8.40625C21.7084 8.63542 21.7242 8.86958 21.6725 9.10875C21.62 9.34875 21.4896 9.5625 21.2813 9.75L16.6875 13.7188L18.0625 19.625C18.125 19.8958 18.1042 20.1408 18 20.36C17.8959 20.5783 17.75 20.7604 17.5625 20.9063C17.375 21.0521 17.1563 21.1354 16.9063 21.1562C16.6563 21.1771 16.4167 21.1146 16.1875 20.9688L11 17.8438Z" fill="#E93E30"/>
</svg>
