<svg width="26" height="26" viewBox="0 0 26 26" fill="none" xmlns="http://www.w3.org/2000/svg">
    <path d="M9.875 9.65625V16.3438C9.875 16.8438 10.0938 17.2083 10.5312 17.4375C10.9687 17.6667 11.3958 17.6458 11.8125 17.375L17 14.0625C17.3958 13.8333 17.5938 13.4792 17.5938 13C17.5938 12.5208 17.3958 12.1667 17 11.9375L11.8125 8.625C11.3958 8.35417 10.9687 8.33333 10.5312 8.5625C10.0938 8.79167 9.875 9.15625 9.875 9.65625ZM13 25.5C11.2708 25.5 9.64583 25.1717 8.125 24.515C6.60417 23.8592 5.28125 22.9688 4.15625 21.8438C3.03125 20.7188 2.14083 19.3958 1.485 17.875C0.828333 16.3542 0.5 14.7292 0.5 13C0.5 11.2708 0.828333 9.64583 1.485 8.125C2.14083 6.60417 3.03125 5.28125 4.15625 4.15625C5.28125 3.03125 6.60417 2.14042 8.125 1.48375C9.64583 0.827917 11.2708 0.5 13 0.5C14.7292 0.5 16.3542 0.827917 17.875 1.48375C19.3958 2.14042 20.7188 3.03125 21.8438 4.15625C22.9688 5.28125 23.8592 6.60417 24.515 8.125C25.1717 9.64583 25.5 11.2708 25.5 13C25.5 14.7292 25.1717 16.3542 24.515 17.875C23.8592 19.3958 22.9688 20.7188 21.8438 21.8438C20.7188 22.9688 19.3958 23.8592 17.875 24.515C16.3542 25.1717 14.7292 25.5 13 25.5ZM13 23C15.7708 23 18.1304 22.0263 20.0788 20.0788C22.0263 18.1304 23 15.7708 23 13C23 10.2292 22.0263 7.86958 20.0788 5.92125C18.1304 3.97375 15.7708 3 13 3C10.2292 3 7.87 3.97375 5.9225 5.92125C3.97417 7.86958 3 10.2292 3 13C3 15.7708 3.97417 18.1304 5.9225 20.0788C7.87 22.0263 10.2292 23 13 23Z" fill="#5B68FD"/>
</svg>
