<svg width="90" height="88" viewBox="0 0 90 88" fill="none" xmlns="http://www.w3.org/2000/svg">
    <g filter="url(#filter0_d_0_1)">
        <circle cx="45" cy="39" r="25" fill="#E93E30"/>
    </g>
    <path d="M45 50.25C44.84 50.2516 44.6824 50.2112 44.543 50.1328C44.0391 49.8516 32.3438 43.207 32.3438 34.7813C32.3438 33.3055 32.8081 31.8672 33.671 30.67C34.5338 29.4728 35.7515 28.5775 37.1515 28.1108C38.5515 27.6442 40.0629 27.6298 41.4715 28.0698C42.8801 28.5098 44.1146 29.3819 45 30.5625C45.8854 29.3819 47.1199 28.5098 48.5285 28.0698C49.9371 27.6298 51.4485 27.6442 52.8485 28.1108C54.2485 28.5775 55.4662 29.4728 56.329 30.67C57.1919 31.8672 57.6562 33.3055 57.6562 34.7813C57.6562 38.3672 55.582 42.0469 51.4922 45.7266C49.635 47.3961 47.6129 48.8725 45.457 50.1328C45.3176 50.2112 45.16 50.2516 45 50.25ZM39.375 29.625C38.0075 29.625 36.696 30.1682 35.729 31.1352C34.762 32.1022 34.2188 33.4137 34.2188 34.7813C34.2188 41.25 42.8906 46.9336 45 48.2227C47.1094 46.9336 55.7812 41.25 55.7812 34.7813C55.7823 33.5892 55.3704 32.4337 54.6155 31.5112C53.8606 30.5887 52.8095 29.9562 51.6408 29.7214C50.4722 29.4865 49.2583 29.6638 48.2056 30.2231C47.153 30.7824 46.3266 31.6892 45.8672 32.7891C45.7966 32.961 45.6764 33.1081 45.522 33.2116C45.3676 33.3151 45.1859 33.3703 45 33.3703C44.8141 33.3703 44.6324 33.3151 44.478 33.2116C44.3236 33.1081 44.2034 32.961 44.1328 32.7891C43.7426 31.8495 43.082 31.0471 42.2349 30.4838C41.3878 29.9204 40.3923 29.6215 39.375 29.625Z" fill="white"/>
    <defs>
        <filter id="filter0_d_0_1" x="0" y="-2" width="90" height="90" filterUnits="userSpaceOnUse" color-interpolation-filters="sRGB">
            <feFlood flood-opacity="0" result="BackgroundImageFix"/>
            <feColorMatrix in="SourceAlpha" type="matrix" values="0 0 0 0 0 0 0 0 0 0 0 0 0 0 0 0 0 0 127 0" result="hardAlpha"/>
            <feOffset dy="4"/>
            <feGaussianBlur stdDeviation="10"/>
            <feComposite in2="hardAlpha" operator="out"/>
            <feColorMatrix type="matrix" values="0 0 0 0 1 0 0 0 0 1 0 0 0 0 1 0 0 0 0.44 0"/>
            <feBlend mode="normal" in2="BackgroundImageFix" result="effect1_dropShadow_0_1"/>
            <feBlend mode="normal" in="SourceGraphic" in2="effect1_dropShadow_0_1" result="shape"/>
        </filter>
    </defs>
</svg>
