<svg width="27" height="26" viewBox="0 0 27 26" fill="none" xmlns="http://www.w3.org/2000/svg">
    <path d="M9.30567 8.5844C9.4614 8.74013 9.4614 8.994 9.30567 9.14973C9.14994 9.30546 8.89607 9.30546 8.74034 9.14973C8.5846 8.994 8.5846 8.74013 8.74034 8.5844C8.89607 8.4276 9.14887 8.4276 9.30567 8.5844Z" stroke="#5B6975" stroke-width="1.6" stroke-linecap="round" stroke-linejoin="round"/>
    <path d="M14.0161 8.5844C14.1719 8.74013 14.1719 8.994 14.0161 9.14973C13.8604 9.30546 13.6065 9.30546 13.4508 9.14973C13.2951 8.994 13.2951 8.74013 13.4508 8.5844C13.6065 8.4276 13.8604 8.4276 14.0161 8.5844Z" stroke="#5B6975" stroke-width="1.6" stroke-linecap="round" stroke-linejoin="round"/>
    <path d="M18.7275 8.5844C18.8833 8.74013 18.8833 8.994 18.7275 9.14973C18.5718 9.30546 18.3179 9.30546 18.1622 9.14973C18.0065 8.994 18.0065 8.74013 18.1622 8.5844C18.3179 8.4276 18.5707 8.4276 18.7275 8.5844Z" stroke="#5B6975" stroke-width="1.6" stroke-linecap="round" stroke-linejoin="round"/>
    <path d="M12.6671 14.1999H6.26712C5.08846 14.1999 4.13379 13.2452 4.13379 12.0665V5.66654C4.13379 4.48787 5.08846 3.5332 6.26712 3.5332H21.2005C22.3791 3.5332 23.3338 4.48787 23.3338 5.66654V8.86654" stroke="#5B6975" stroke-width="1.6" stroke-linecap="round" stroke-linejoin="round"/>
    <path d="M21.6194 17.0753V15.2257C21.6194 14.0694 20.6818 13.1318 19.5255 13.1318C18.3692 13.1318 17.4316 14.0694 17.4316 15.2257V17.0753" stroke="#5B6975" stroke-width="1.6" stroke-linecap="round" stroke-linejoin="round"/>
    <path d="M22.2667 17.0781H16.9334C16.3446 17.0781 15.8667 17.556 15.8667 18.1448V21.6669C15.8667 22.2557 16.3446 22.7336 16.9334 22.7336H22.2667C22.8555 22.7336 23.3334 22.2557 23.3334 21.6669V18.1448C23.3334 17.5549 22.8555 17.0781 22.2667 17.0781Z" stroke="#5B6975" stroke-width="1.6" stroke-linecap="round" stroke-linejoin="round"/>
</svg>
