<svg width="17" height="17" viewBox="0 0 17 17" fill="none" xmlns="http://www.w3.org/2000/svg">
    <path d="M7.33342 13.9998C8.81256 13.9995 10.2491 13.5044 11.4142 12.5932L15.0776 16.2565L16.2559 15.0782L12.5926 11.4148C13.5043 10.2496 13.9997 8.8127 14.0001 7.33317C14.0001 3.65734 11.0092 0.666504 7.33342 0.666504C3.65758 0.666504 0.666748 3.65734 0.666748 7.33317C0.666748 11.009 3.65758 13.9998 7.33342 13.9998ZM7.33342 2.33317C10.0909 2.33317 12.3334 4.57567 12.3334 7.33317C12.3334 10.0907 10.0909 12.3332 7.33342 12.3332C4.57592 12.3332 2.33341 10.0907 2.33341 7.33317C2.33341 4.57567 4.57592 2.33317 7.33342 2.33317Z" fill="#979797"/>
</svg>
