<svg width="31" height="30" viewBox="0 0 31 30" fill="none" xmlns="http://www.w3.org/2000/svg">
    <path fill-rule="evenodd" clip-rule="evenodd" d="M13.875 5.00007C11.7201 5.00007 9.65349 5.8561 8.12976 7.37983C6.60602 8.90356 5.75 10.9702 5.75 13.1251C5.75 15.28 6.60602 17.3466 8.12976 18.8703C9.65349 20.394 11.7201 21.2501 13.875 21.2501C16.0299 21.2501 18.0965 20.394 19.6202 18.8703C21.144 17.3466 22 15.28 22 13.1251C22 10.9702 21.144 8.90356 19.6202 7.37983C18.0965 5.8561 16.0299 5.00007 13.875 5.00007ZM3.25 13.1251C3.25014 11.4308 3.65546 9.76115 4.43212 8.25539C5.20878 6.74963 6.33427 5.45144 7.71469 4.46912C9.09511 3.4868 10.6904 2.84884 12.3676 2.60846C14.0447 2.36808 15.755 2.53226 17.3557 3.0873C18.9565 3.64233 20.4013 4.57213 21.5697 5.79912C22.738 7.02611 23.596 8.5147 24.072 10.1407C24.548 11.7667 24.6283 13.483 24.3061 15.1463C23.984 16.8097 23.2687 18.3719 22.22 19.7026L26.785 24.2676C27.0127 24.5033 27.1387 24.8191 27.1358 25.1468C27.133 25.4746 27.0015 25.7881 26.7698 26.0198C26.538 26.2516 26.2245 26.3831 25.8968 26.3859C25.569 26.3888 25.2533 26.2628 25.0175 26.0351L20.4525 21.4701C18.8858 22.7051 17.003 23.474 15.0197 23.6889C13.0363 23.9039 11.0325 23.5561 9.23762 22.6854C7.44271 21.8146 5.9292 20.4562 4.87029 18.7654C3.81138 17.0747 3.24987 15.12 3.25 13.1251ZM12.625 8.75007C12.625 8.41855 12.7567 8.10061 12.9911 7.86619C13.2255 7.63177 13.5435 7.50007 13.875 7.50007C15.3668 7.50007 16.7976 8.09271 17.8525 9.1476C18.9074 10.2025 19.5 11.6332 19.5 13.1251C19.5 13.4566 19.3683 13.7745 19.1339 14.009C18.8995 14.2434 18.5815 14.3751 18.25 14.3751C17.9185 14.3751 17.6005 14.2434 17.3661 14.009C17.1317 13.7745 17 13.4566 17 13.1251C17 12.2963 16.6708 11.5014 16.0847 10.9154C15.4987 10.3293 14.7038 10.0001 13.875 10.0001C13.5435 10.0001 13.2255 9.86838 12.9911 9.63396C12.7567 9.39954 12.625 9.08159 12.625 8.75007Z" fill="#5B68FD"/>
</svg>
