<svg width="25" height="25" viewBox="0 0 25 25" fill="none" xmlns="http://www.w3.org/2000/svg">
    <path d="M14.4092 10.5906C15.4637 11.645 15.4637 13.3546 14.4092 14.409C13.3548 15.4634 11.6453 15.4634 10.5909 14.409C9.53644 13.3546 9.53644 11.645 10.5909 10.5906C11.6453 9.5362 13.3548 9.5362 14.4092 10.5906" stroke="#828282" stroke-width="1.5" stroke-linecap="round" stroke-linejoin="round"/>
    <path d="M5.74999 12.5C5.74999 12.797 5.77699 13.094 5.81299 13.382L4.22499 14.624C3.87299 14.9 3.77699 15.393 4.00099 15.78L5.41299 18.223C5.63599 18.61 6.10999 18.773 6.52499 18.607L7.94699 18.036C8.22799 17.923 8.54099 17.968 8.79299 18.135C9.01299 18.281 9.24099 18.415 9.47699 18.535C9.74699 18.672 9.94299 18.917 9.98599 19.217L10.203 20.73C10.266 21.172 10.645 21.5 11.091 21.5H13.908C14.354 21.5 14.733 21.172 14.796 20.73L15.013 19.218C15.056 18.918 15.254 18.671 15.525 18.535C15.76 18.417 15.987 18.284 16.206 18.139C16.46 17.971 16.774 17.923 17.056 18.037L18.475 18.607C18.889 18.773 19.363 18.61 19.587 18.223L20.999 15.78C21.223 15.393 21.127 14.899 20.775 14.624L19.187 13.382C19.223 13.094 19.25 12.797 19.25 12.5C19.25 12.203 19.223 11.906 19.187 11.618L20.775 10.376C21.127 10.1 21.223 9.607 20.999 9.22L19.587 6.777C19.364 6.39 18.89 6.227 18.475 6.393L17.056 6.963C16.774 7.076 16.46 7.029 16.206 6.861C15.987 6.716 15.76 6.583 15.525 6.465C15.254 6.329 15.056 6.082 15.013 5.782L14.797 4.27C14.734 3.828 14.355 3.5 13.909 3.5H11.092C10.646 3.5 10.267 3.828 10.204 4.27L9.98599 5.784C9.94299 6.083 9.74599 6.329 9.47699 6.466C9.24099 6.586 9.01299 6.721 8.79299 6.866C8.53999 7.032 8.22699 7.077 7.94599 6.964L6.52499 6.393C6.10999 6.227 5.63599 6.39 5.41299 6.777L4.00099 9.22C3.77699 9.607 3.87299 10.101 4.22499 10.376L5.81299 11.618C5.77699 11.906 5.74999 12.203 5.74999 12.5V12.5Z" stroke="#828282" stroke-width="1.5" stroke-linecap="round" stroke-linejoin="round"/>
</svg>
