<svg width="90" height="87" viewBox="0 0 90 87" fill="none" xmlns="http://www.w3.org/2000/svg">
    <g filter="url(#filter0_d_0_1)">
        <circle cx="45" cy="38" r="25" fill="white"/>
    </g>
    <path d="M45 49.25C44.84 49.2516 44.6824 49.2112 44.543 49.1328C44.0391 48.8516 32.3438 42.207 32.3438 33.7813C32.3438 32.3055 32.8081 30.8672 33.671 29.67C34.5338 28.4728 35.7515 27.5775 37.1515 27.1108C38.5515 26.6442 40.0629 26.6298 41.4715 27.0698C42.8801 27.5098 44.1146 28.3819 45 29.5625C45.8854 28.3819 47.1199 27.5098 48.5285 27.0698C49.9371 26.6298 51.4485 26.6442 52.8485 27.1108C54.2485 27.5775 55.4662 28.4728 56.329 29.67C57.1919 30.8672 57.6562 32.3055 57.6562 33.7813C57.6562 37.3672 55.582 41.0469 51.4922 44.7266C49.635 46.3961 47.6129 47.8725 45.457 49.1328C45.3176 49.2112 45.16 49.2516 45 49.25ZM39.375 28.625C38.0075 28.625 36.696 29.1682 35.729 30.1352C34.762 31.1022 34.2188 32.4137 34.2188 33.7813C34.2188 40.25 42.8906 45.9336 45 47.2227C47.1094 45.9336 55.7812 40.25 55.7812 33.7813C55.7823 32.5892 55.3704 31.4337 54.6155 30.5112C53.8606 29.5887 52.8095 28.9562 51.6408 28.7214C50.4722 28.4865 49.2583 28.6638 48.2056 29.2231C47.153 29.7824 46.3266 30.6892 45.8672 31.7891C45.7966 31.961 45.6764 32.1081 45.522 32.2116C45.3676 32.3151 45.1859 32.3703 45 32.3703C44.8141 32.3703 44.6324 32.3151 44.478 32.2116C44.3236 32.1081 44.2034 31.961 44.1328 31.7891C43.7426 30.8495 43.082 30.0471 42.2349 29.4838C41.3878 28.9204 40.3923 28.6215 39.375 28.625Z" fill="#5B68FD"/>
    <defs>
        <filter id="filter0_d_0_1" x="0" y="-3" width="90" height="90" filterUnits="userSpaceOnUse" color-interpolation-filters="sRGB">
            <feFlood flood-opacity="0" result="BackgroundImageFix"/>
            <feColorMatrix in="SourceAlpha" type="matrix" values="0 0 0 0 0 0 0 0 0 0 0 0 0 0 0 0 0 0 127 0" result="hardAlpha"/>
            <feOffset dy="4"/>
            <feGaussianBlur stdDeviation="10"/>
            <feComposite in2="hardAlpha" operator="out"/>
            <feColorMatrix type="matrix" values="0 0 0 0 1 0 0 0 0 1 0 0 0 0 1 0 0 0 0.44 0"/>
            <feBlend mode="normal" in2="BackgroundImageFix" result="effect1_dropShadow_0_1"/>
            <feBlend mode="normal" in="SourceGraphic" in2="effect1_dropShadow_0_1" result="shape"/>
        </filter>
    </defs>
</svg>
