<svg width="22" height="18" viewBox="0 0 22 18" fill="none" xmlns="http://www.w3.org/2000/svg">
    <path d="M13.5297 6.6718C14.7788 7.92087 14.7788 9.9486 13.5297 11.1998C12.2807 12.4489 10.2529 12.4489 9.00174 11.1998C7.75267 9.95073 7.75267 7.923 9.00174 6.6718C10.2529 5.4206 12.2796 5.4206 13.5297 6.6718Z" stroke="#8E90A6" stroke-width="1.6" stroke-linecap="round" stroke-linejoin="round"/>
    <path d="M1.6665 8.93346C1.6665 8.23053 1.82864 7.53506 2.14224 6.894C3.75824 3.59053 7.32944 1.4668 11.2665 1.4668C15.2036 1.4668 18.7748 3.59053 20.3908 6.894C20.7044 7.53506 20.8665 8.23053 20.8665 8.93346C20.8665 9.6364 20.7044 10.3319 20.3908 10.9729C18.7748 14.2764 15.2036 16.4001 11.2665 16.4001C7.32944 16.4001 3.75824 14.2764 2.14224 10.9729C1.82864 10.3319 1.6665 9.6364 1.6665 8.93346V8.93346Z" stroke="#8E90A6" stroke-width="1.6" stroke-linecap="round" stroke-linejoin="round"/>
</svg>
