<svg width="26" height="24" viewBox="0 0 26 24" fill="none" xmlns="http://www.w3.org/2000/svg">
    <path d="M13.25 23.25C13.09 23.2516 12.9324 23.2112 12.793 23.1328C12.2891 22.8516 0.59375 16.207 0.59375 7.78125C0.59375 6.30551 1.05808 4.86719 1.92095 3.67001C2.78383 2.47283 4.00152 1.57749 5.40152 1.11082C6.80153 0.644152 8.31288 0.62981 9.72149 1.06983C11.1301 1.50984 12.3646 2.38191 13.25 3.5625C14.1354 2.38191 15.3699 1.50984 16.7785 1.06983C18.1871 0.62981 19.6985 0.644152 21.0985 1.11082C22.4985 1.57749 23.7162 2.47283 24.579 3.67001C25.4419 4.86719 25.9062 6.30551 25.9062 7.78125C25.9062 11.3672 23.832 15.0469 19.7422 18.7266C17.885 20.3961 15.8629 21.8725 13.707 23.1328C13.5676 23.2112 13.41 23.2516 13.25 23.25ZM7.625 2.625C6.25748 2.625 4.94597 3.16825 3.97898 4.13523C3.012 5.10222 2.46875 6.41373 2.46875 7.78125C2.46875 14.25 11.1406 19.9336 13.25 21.2227C15.3594 19.9336 24.0312 14.25 24.0312 7.78125C24.0323 6.58925 23.6204 5.43369 22.8655 4.51118C22.1106 3.58866 21.0595 2.95619 19.8908 2.72135C18.7222 2.48652 17.5083 2.66384 16.4556 3.22314C15.403 3.78244 14.5766 4.68917 14.1172 5.78906C14.0466 5.96101 13.9264 6.10808 13.772 6.21158C13.6176 6.31508 13.4359 6.37034 13.25 6.37034C13.0641 6.37034 12.8824 6.31508 12.728 6.21158C12.5736 6.10808 12.4534 5.96101 12.3828 5.78906C11.9926 4.84953 11.332 4.04714 10.4849 3.48379C9.63776 2.92043 8.64234 2.62152 7.625 2.625Z" fill="#5B68FD"/>
</svg>
